<?xml version="1.0" standalone="no"?>
<!DOCTYPE svg PUBLIC "-//W3C//DTD SVG 20010904//EN"
 "http://www.w3.org/TR/2001/REC-SVG-20010904/DTD/svg10.dtd">
<svg version="1.0" xmlns="http://www.w3.org/2000/svg"
 width="150.000000pt" height="150.000000pt" viewBox="0 0 150.000000 150.000000"
 preserveAspectRatio="xMidYMid meet">

<g transform="translate(0.000000,150.000000) scale(0.100000,-0.100000)"
fill="#F3C844" stroke="none">
<path d="M348 1336 c-58 -12 -88 -29 -88 -50 0 -7 -11 -23 -25 -36 -47 -44
-117 -319 -146 -569 -15 -131 -7 -358 15 -427 28 -89 85 -129 147 -104 43 18
73 77 109 215 21 81 40 131 59 154 l26 34 315 0 314 0 22 -26 c23 -26 31 -51
80 -221 40 -142 92 -189 169 -154 33 15 59 59 76 128 20 80 17 366 -5 507 -35
226 -92 426 -131 463 -14 13 -25 29 -25 37 0 20 -40 41 -97 51 -44 8 -54 6
-70 -8 -17 -17 -25 -17 -118 -3 -107 16 -398 12 -485 -6 -38 -8 -48 -7 -65 8
-18 16 -26 17 -77 7z m72 -19 c0 -12 -140 -50 -149 -41 -10 9 19 26 65 39 64
17 84 18 84 2z m781 -8 c21 -5 40 -16 43 -25 4 -11 1 -14 -12 -10 -9 3 -39 10
-67 16 -73 17 -77 19 -70 31 7 10 30 7 106 -12z m-91 -22 c157 -34 168 -39
190 -90 32 -71 78 -267 101 -423 17 -118 20 -177 16 -312 -2 -100 -10 -182
-18 -205 -17 -50 -65 -97 -99 -97 -58 0 -82 39 -126 205 -29 109 -51 160 -82
188 -19 17 -44 19 -334 19 l-312 0 -32 -35 c-31 -34 -39 -56 -84 -223 -12 -45
-30 -95 -40 -112 -35 -58 -105 -55 -144 6 -37 58 -50 132 -49 287 1 163 22
327 65 510 35 146 67 228 96 244 19 10 230 55 302 64 19 3 125 4 235 2 167 -3
219 -7 315 -28z"/>
<path d="M610 1299 c-91 -11 -107 -17 -114 -35 -5 -14 26 -229 40 -277 3 -10
15 -27 27 -37 19 -18 36 -20 197 -20 231 0 216 -12 249 198 21 130 20 148 -7
156 -75 23 -273 30 -392 15z m319 -19 c41 -6 77 -12 79 -15 3 -3 -4 -66 -15
-141 -14 -92 -27 -142 -39 -155 -16 -17 -32 -19 -194 -19 -160 0 -179 2 -194
19 -16 17 -56 212 -56 273 0 24 4 27 48 33 26 3 54 8 62 9 34 8 240 5 309 -4z"/>
<path d="M645 1139 c-5 -14 -1 -27 10 -38 15 -15 17 -15 30 3 10 13 11 24 4
37 -13 25 -36 24 -44 -2z"/>
<path d="M736 1144 c-7 -17 10 -54 24 -54 14 0 31 37 24 54 -3 9 -14 16 -24
16 -10 0 -21 -7 -24 -16z"/>
<path d="M827 1140 c-3 -10 1 -27 8 -37 13 -17 15 -17 30 -2 11 11 15 24 10
38 -8 26 -41 28 -48 1z"/>
<path d="M432 1204 c2 -20 9 -39 16 -42 10 -3 12 6 10 34 -2 20 -9 39 -16 42
-10 3 -12 -6 -10 -34z"/>
<path d="M1067 1233 c-3 -4 -7 -21 -8 -38 -3 -22 0 -30 11 -30 9 0 16 11 18
29 4 28 -11 55 -21 39z"/>
<path d="M1141 1161 c-17 -31 -13 -76 8 -95 43 -39 96 24 69 81 -17 36 -61 44
-77 14z m58 -5 c17 -20 10 -67 -12 -80 -15 -9 -21 -7 -33 8 -18 26 -18 51 2
70 19 20 28 20 43 2z"/>
<path d="M310 1145 c-8 -10 -11 -32 -7 -60 4 -37 2 -43 -9 -34 -40 33 -88 -22
-68 -78 8 -23 16 -28 44 -28 l35 0 0 -50 c0 -47 1 -50 28 -53 16 -2 35 2 43 9
17 14 18 62 3 92 -9 18 -9 20 2 10 19 -18 66 -16 73 3 10 26 7 79 -6 92 -16
16 -50 15 -67 0 -11 -11 -11 -9 -2 9 15 29 14 76 -1 91 -17 17 -53 15 -68 -3z
m60 -43 c0 -21 -6 -46 -13 -57 -13 -17 -15 -17 -30 6 -17 24 -23 70 -10 82 3
4 17 7 30 7 20 0 23 -5 23 -38z m-62 -82 c17 -28 -4 -60 -40 -60 -26 0 -28 3
-28 40 0 37 2 40 28 40 16 0 32 -8 40 -20z m43 -5 c3 2 5 -5 5 -15 0 -11 -6
-20 -13 -20 -7 0 -13 8 -13 18 0 10 -6 24 -12 32 -7 8 -4 7 8 -3 11 -9 23 -15
25 -12z m97 -11 c4 -41 -16 -57 -48 -41 -47 23 -32 81 19 75 21 -2 27 -9 29
-34z m-78 -107 c0 -36 -2 -38 -27 -35 -22 2 -29 9 -31 31 -2 16 4 40 14 54 16
25 17 26 30 8 8 -10 14 -36 14 -58z"/>
<path d="M1060 1048 c-11 -12 -20 -34 -20 -50 0 -27 30 -68 50 -68 19 0 50 40
50 64 0 24 -34 76 -50 76 -5 0 -18 -10 -30 -22z m49 -12 c7 -8 11 -27 9 -43
-2 -22 -8 -28 -28 -28 -20 0 -26 6 -28 28 -3 27 12 57 28 57 4 0 13 -6 19 -14z"/>
<path d="M1075 1019 c-4 -6 -4 -13 -1 -16 3 -4 6 -1 6 6 0 8 6 11 16 7 8 -3
12 -2 9 4 -8 13 -22 13 -30 -1z"/>
<path d="M1241 1053 c-28 -23 -31 -75 -6 -103 23 -25 37 -25 59 -1 24 26 18
89 -10 108 -18 12 -24 11 -43 -4z m51 -28 c13 -30 -3 -75 -27 -75 -24 0 -40
45 -27 75 6 14 19 25 27 25 8 0 21 -11 27 -25z"/>
<path d="M1152 934 c-33 -23 -31 -88 4 -111 26 -17 27 -16 51 11 27 31 25 66
-4 99 -20 21 -23 21 -51 1z m46 -16 c26 -26 8 -88 -25 -88 -23 0 -38 46 -25
75 13 27 31 32 50 13z"/>
<path d="M504 852 c-31 -25 -44 -55 -44 -104 0 -121 113 -159 163 -55 25 50
15 110 -23 149 -32 32 -65 35 -96 10z m91 -22 c11 -12 20 -41 23 -73 3 -42 0
-57 -18 -79 -28 -36 -81 -39 -104 -6 -35 49 -27 145 12 168 28 16 68 11 87
-10z"/>
<path d="M515 806 c-31 -31 -33 -74 -4 -110 25 -31 42 -33 69 -6 26 26 27 91
3 112 -34 29 -43 29 -68 4z"/>
<path d="M927 849 c-55 -43 -55 -155 0 -198 63 -50 133 2 133 99 0 47 -13 77
-44 102 -28 23 -58 22 -89 -3z m83 -9 c20 -11 40 -60 40 -99 0 -14 -9 -41 -20
-58 -16 -27 -26 -33 -54 -33 -52 0 -79 39 -74 107 7 79 51 113 108 83z"/>
<path d="M946 809 c-33 -26 -36 -89 -6 -119 27 -27 44 -25 69 6 33 42 24 101
-18 124 -14 7 -25 5 -45 -11z"/>
<path d="M680 800 c0 -5 16 -10 35 -10 19 0 35 5 35 10 0 6 -16 10 -35 10 -19
0 -35 -4 -35 -10z"/>
<path d="M780 800 c0 -5 14 -10 30 -10 17 0 30 5 30 10 0 6 -13 10 -30 10 -16
0 -30 -4 -30 -10z"/>
<path d="M732 698 c3 -7 15 -12 28 -12 13 0 25 5 28 12 2 8 -7 12 -28 12 -21
0 -30 -4 -28 -12z"/>
</g>
</svg>
